<svg xmlns="http://www.w3.org/2000/svg" width="256" height="256" viewBox="0 0 256 256" xmlns:xlink="http://www.w3.org/1999/xlink" style="background:#314150">
  <defs>
    <path id="a" d="M72.648,111.402 C72.2799982,111.003331 72.096,110.497336 72.096,109.884 L72.096,49.808 C72.096,49.13333 72.2799982,48.5966687 72.648,48.198 C73.0160018,47.7993313 73.5066636,47.6 74.12,47.6 L96.568,47.6 C103.560035,47.6 109.03398,49.2406503 112.99,52.522 C116.94602,55.8033497 118.924,60.5719687 118.924,66.828 C118.924,71.4893566 117.758678,75.3226516 115.428,78.328 C113.097322,81.3333484 109.846688,83.4186608 105.676,84.584 L119.844,109.148 C120.028001,109.516002 120.12,109.853332 120.12,110.16 C120.12,110.650669 119.936002,111.079998 119.568,111.448 C119.199998,111.816002 118.770669,112 118.28,112 L114.232,112 C113.311995,112 112.591336,111.785335 112.07,111.356 C111.548664,110.926665 111.073335,110.313337 110.644,109.516 L97.12,85.964 L80.744,85.964 L80.744,109.884 C80.744,110.497336 80.5293355,111.003331 80.1,111.402 C79.6706645,111.800669 79.1493364,112 78.536,112 L74.12,112 C73.5066636,112 73.0160018,111.800669 72.648,111.402 Z M96.2,78.42 C105.46138,78.42 110.092,74.5253723 110.092,66.736 C110.092,58.9466277 105.46138,55.052 96.2,55.052 L80.744,55.052 L80.744,78.42 L96.2,78.42 Z M152,91.0294373 L163.029437,80 L152,68.9705627 L152,44.006997 C152,32.9572186 143.04271,24 131.993003,24 L120.002337,24 C115.574348,24 112,20.4220153 112,16.0083475 L112,7.99165249 C112,3.5800761 115.582768,0 120.002337,0 L131.993003,0 C156.297502,0 176,19.702342 176,44.006997 L176,59.0294373 L187.777136,70.8065737 C192.858386,75.8878229 192.848122,84.1224407 187.777136,89.1934263 L176,100.970563 L176,115.993003 C176,140.297502 156.297658,160 131.993003,160 L120.002337,160 C115.574348,160 112,156.422015 112,152.008348 L112,143.991652 C112,139.580076 115.582768,136 120.002337,136 L131.993003,136 C143.042781,136 152,127.04271 152,115.993003 L152,91.0294373 Z M72,144 L60.006997,144 C44.5389607,144 32,131.461009 32,115.993003 L32,94.3431458 L17.6568542,80 L32,65.6568542 L32,44.006997 C32,28.5389607 44.5389915,16 60.006997,16 L72,16 L72,8 L60.006997,8 C40.1207178,8 24,24.1206783 24,44.006997 L24,62.3431458 L9.87971778,76.463428 C7.92718286,78.4159629 7.92840475,81.585259 9.87971778,83.536572 L24,97.6568542 L24,115.993003 C24,135.879282 40.1206783,152 60.006997,152 L72,152 L72,144 Z M4.22286353,70.8065737 L16,59.0294373 L16,44.006997 C16,19.702342 35.7024982,0 60.006997,0 L71.9976628,0 C76.4172316,0 80,3.5800761 80,7.99165249 L80,16.0083475 C80,20.4220153 76.4256517,24 71.9976628,24 L60.006997,24 C48.9572896,24 40,32.9572186 40,44.006997 L40,68.9705627 L28.9705627,80 L40,91.0294373 L40,115.993003 C40,127.04271 48.9572186,136 60.006997,136 L71.9976628,136 C76.4172316,136 80,139.580076 80,143.991652 L80,152.008348 C80,156.422015 76.4256517,160 71.9976628,160 L60.006997,160 C35.702342,160 16,140.297502 16,115.993003 L16,100.970563 L4.22286353,89.1934263 C-0.848122009,84.1224407 -0.858385656,75.8878229 4.22286353,70.8065737 Z"/>
    <linearGradient id="b" x1="50%" x2="50%" y1="28.113%" y2="81.036%">
      <stop stop-color="#4BDDB3" offset="0%"/>
      <stop stop-color="#4BD5D5" offset="100%"/>
    </linearGradient>
  </defs>
  <g fill="none" fill-rule="evenodd" transform="translate(32 48)">
    <mask id="c" fill="white">
      <use xlink:href="#a"/>
    </mask>
    <use fill="#4BDDB3" xlink:href="#a"/>
    <rect width="256" height="256" x="-32" y="-48" fill="url(#b)" mask="url(#c)"/>
  </g>
</svg>
